<svg width="39" height="49" viewBox="0 0 39 49" fill="none" xmlns="http://www.w3.org/2000/svg">
    <path fill-rule="evenodd" clip-rule="evenodd"
          d="M7.3125 45.0675V45.9341C7.3125 47.3701 8.47658 48.5342 9.91254 48.5342H36.4005C37.8365 48.5342 39.0005 47.3701 39.0005 45.9341V9.53363C39.0005 8.09767 37.8365 6.93359 36.4005 6.93359H35.7505V42.4674C35.7505 43.9034 34.5864 45.0675 33.1504 45.0675H7.3125Z"
          fill="currentColor"/>
    <path fill-rule="evenodd" clip-rule="evenodd"
          d="M0 2.60004C0 1.16408 1.16408 0 2.60004 0H29.4671C30.903 0 32.0671 1.16408 32.0671 2.60004V39.0005C32.0671 40.4365 30.903 41.6006 29.4671 41.6006H2.60003C1.16407 41.6006 0 40.4365 0 39.0005V2.60004ZM3.46671 5.20007H28.6004V31.2004H3.46671V5.20007ZM28.6004 33.8005H3.46671V36.4005H28.6004V33.8005Z"
          fill="currentColor"/>
</svg>
